<svg id="Capa_1" enable-background="new 0 0 512 512" height="512" viewBox="0 0 512 512" width="512" xmlns="http://www.w3.org/2000/svg"><g><g><path d="m256 392c-8.284 0-15-6.716-15-15v-62c0-8.284 6.716-15 15-15s15 6.716 15 15v62c0 8.284-6.716 15-15 15z" fill="#ffd845"/></g><g><path d="m256 300v92c8.284 0 15-6.716 15-15v-62c0-8.284-6.716-15-15-15z" fill="#ffb454"/></g><g><path d="m385.645 254.996c-4.441 0-8.839-1.964-11.798-5.725-5.123-6.511-3.998-15.941 2.513-21.064 12.2-9.599 23.252-20.651 32.848-32.848 5.123-6.511 14.553-7.636 21.063-2.514 6.511 5.123 7.637 14.553 2.515 21.064-11.065 14.064-23.809 26.808-37.875 37.875-2.75 2.163-6.02 3.212-9.266 3.212z" fill="#ffb454"/></g><g><path d="m285.745 297.653c-7.349 0-13.767-5.404-14.832-12.889-1.167-8.202 4.536-15.796 12.738-16.963 15.658-2.228 30.753-6.229 44.865-11.892 7.687-3.086 16.422.646 19.508 8.334 3.085 7.688-.646 16.422-8.334 19.507-16.344 6.559-33.776 11.185-51.814 13.751-.716.103-1.428.152-2.131.152z" fill="#ffb454"/></g><g><path d="m450.825 168.105c-1.859 0-3.75-.348-5.581-1.083-7.688-3.085-11.42-11.818-8.335-19.507 5.663-14.113 9.664-29.208 11.891-44.865 1.167-8.201 8.756-13.907 16.963-12.738 8.202 1.167 13.905 8.761 12.738 16.963-2.565 18.036-7.191 35.468-13.75 51.812-2.35 5.857-7.979 9.418-13.926 9.418z" fill="#ffb454"/></g><g><path d="m126.355 254.996c-3.247 0-6.517-1.049-9.266-3.212-14.065-11.067-26.809-23.81-37.874-37.874-5.123-6.51-3.998-15.941 2.513-21.063s15.94-3.999 21.063 2.513c9.598 12.198 20.649 23.25 32.849 32.849 6.511 5.123 7.636 14.553 2.513 21.064-2.959 3.759-7.357 5.723-11.798 5.723z" fill="#ffd845"/></g><g><path d="m61.176 168.106c-5.947 0-11.575-3.561-13.926-9.418-6.56-16.346-11.186-33.778-13.751-51.813-1.167-8.202 4.536-15.796 12.738-16.963 8.207-1.164 15.797 4.537 16.963 12.738 2.227 15.655 6.228 30.75 11.892 44.866 3.085 7.688-.646 16.422-8.335 19.507-1.831.735-3.722 1.083-5.581 1.083z" fill="#ffd845"/></g><g><path d="m226.256 297.653c-.703 0-1.414-.049-2.131-.151-18.038-2.566-35.471-7.193-51.813-13.751-7.688-3.085-11.42-11.819-8.335-19.507 3.086-7.688 11.819-11.42 19.507-8.334 14.113 5.664 29.209 9.665 44.866 11.892 8.202 1.167 13.905 8.762 12.738 16.963-1.065 7.484-7.484 12.888-14.832 12.888z" fill="#ffd845"/></g><g><path d="m256 512c-2.344 0-4.688-.549-6.833-1.646-.876-.448-21.704-11.182-42.729-28.575-30.15-24.943-45.438-50.583-45.438-76.208 0-33.478 27.236-60.714 60.714-60.714 12.31 0 24.245 3.83 34.286 10.793 10.041-6.963 21.977-10.793 34.286-10.793 33.478 0 60.714 27.236 60.714 60.714 0 25.625-15.288 51.265-45.438 76.208-21.024 17.393-41.853 28.126-42.729 28.575-2.145 1.097-4.489 1.646-6.833 1.646z" fill="#fff17d"/></g><g><path d="m466 60c-8.284 0-15-6.716-15-15v-30c0-8.284 6.716-15 15-15s15 6.716 15 15v30c0 8.284-6.716 15-15 15z" fill="#ffb454"/></g><g><path d="m46 60c-8.284 0-15-6.716-15-15v-30c0-8.284 6.716-15 15-15s15 6.716 15 15v30c0 8.284-6.716 15-15 15z" fill="#ffd845"/></g><g><path d="m74.211 224.991c-15.564 0-30.722-8.07-39.047-22.491-12.406-21.489-5.018-49.064 16.471-61.471 10.41-6.011 22.537-7.606 34.146-4.496 11.61 3.111 21.314 10.557 27.324 20.967 12.407 21.489 5.018 49.065-16.471 61.471-7.068 4.081-14.795 6.02-22.423 6.02z" fill="#fff17d"/></g><g><path d="m150.927 301.885c-7.798 0-15.492-2.045-22.427-6.048-21.488-12.406-28.877-39.982-16.471-61.471 12.408-21.49 39.983-28.876 61.471-16.471 10.409 6.01 17.855 15.714 20.967 27.324 3.111 11.611 1.515 23.738-4.496 34.147-6.01 10.409-15.714 17.855-27.324 20.966-3.876 1.039-7.812 1.553-11.72 1.553z" fill="#fff17d"/></g><g><path d="m256 330c-24.813 0-45-20.187-45-45s20.187-45 45-45 45 20.187 45 45-20.187 45-45 45z" fill="#fff17d"/></g><g><path d="m361.073 301.885c-3.909 0-7.843-.514-11.72-1.553-11.61-3.111-21.314-10.557-27.324-20.967-12.406-21.488-5.018-49.064 16.471-61.471 21.486-12.406 49.063-5.019 61.472 16.471 12.406 21.489 5.018 49.064-16.472 61.471-6.934 4.003-14.63 6.049-22.427 6.049z" fill="#fff17d"/></g><g><path d="m437.792 225.019c-7.798 0-15.492-2.045-22.427-6.048-21.488-12.406-28.877-39.982-16.471-61.471 12.407-21.49 39.984-28.876 61.471-16.471 10.409 6.01 17.855 15.713 20.967 27.324s1.515 23.737-4.495 34.147c-6.01 10.41-15.714 17.856-27.324 20.967-3.877 1.038-7.813 1.552-11.721 1.552z" fill="#fff17d"/></g><g><path d="m466 120c-24.813 0-45-20.187-45-45s20.187-45 45-45 45 20.187 45 45-20.187 45-45 45z" fill="#fff17d"/></g><g><path d="m46 120c-24.813 0-45-20.187-45-45s20.187-45 45-45 45 20.187 45 45-20.187 45-45 45z" fill="#fff17d"/></g><g fill="#ffd845"><path d="m290.286 344.857c-12.31 0-24.245 3.83-34.286 10.793v156.35c2.344 0 4.688-.549 6.833-1.646.876-.448 21.704-11.182 42.729-28.575 30.15-24.943 45.438-50.583 45.438-76.208 0-33.478-27.236-60.714-60.714-60.714z"/><path d="m301 285c0-24.813-20.187-45-45-45v90c24.813 0 45-20.187 45-45z"/><path d="m405.992 256.874c0-24.813-20.187-45-45-45v90c24.813 0 45-20.187 45-45z"/><path d="m482.885 180.009c0-24.813-20.187-45-45-45v90c24.813 0 45-20.187 45-45z"/><path d="m511 75c0-24.813-20.187-45-45-45v90c24.813 0 45-20.187 45-45z"/><path d="m196.02 256.874c0-24.813-20.187-45-45-45v90c24.813 0 45-20.187 45-45z"/><path d="m119.126 180.009c0-24.813-20.187-45-45-45v90c24.813 0 45-20.187 45-45z"/><path d="m91 75c0-24.813-20.187-45-45-45v90c24.813 0 45-20.187 45-45z"/></g><path d="m221.714 374.857c-16.936 0-30.714 13.778-30.714 30.714 0 20.25 18.795 40.049 34.562 53.092 11.691 9.672 23.4 17.051 30.493 21.201 22.965-13.308 64.945-43.914 64.945-74.293 0-16.936-13.778-30.714-30.714-30.714-8.83 0-16.995 3.778-22.993 10.639-2.849 3.258-6.965 5.127-11.293 5.127s-8.444-1.869-11.293-5.127c-5.998-6.861-14.163-10.639-22.993-10.639z" fill="#eca0e2"/><path d="m256.055 479.865c22.965-13.309 64.945-43.915 64.945-74.294 0-16.936-13.778-30.714-30.714-30.714-8.83 0-16.995 3.778-22.993 10.639-2.849 3.258-6.965 5.127-11.293 5.127v89.209c.018.011.037.022.055.033z" fill="#dd78ef"/></g></svg>